HIERARCHY
ROOT Hips
{
    OFFSET   0.000000   0.000000   0.000000
    CHANNELS 6 Xposition Yposition Zposition Zrotation Xrotation Yrotation
    JOINT Chest
    {
        OFFSET   0.000000   8.007240   0.000000
        CHANNELS 3 Zrotation Xrotation Yrotation
        JOINT Chest2
        {
            OFFSET   0.000000  22.077100   0.000000
            CHANNELS 3 Zrotation Xrotation Yrotation
            JOINT Neck
            {
                OFFSET   0.000000  23.254800   0.000000
                CHANNELS 3 Zrotation Xrotation Yrotation
                JOINT Head
                {
                    OFFSET   0.000000  14.370000   1.956600
                    CHANNELS 3 Zrotation Xrotation Yrotation
                    End Site
                    {
                        OFFSET   0.000000  19.566000   0.000000
                    }
                }
            }
            JOINT LeftCollar
            {
                OFFSET   3.911900  19.017000  -0.467064
                CHANNELS 3 Zrotation Xrotation Yrotation
                JOINT LeftShoulder
                {
                    OFFSET  10.383700   0.000000   0.000000
                    CHANNELS 3 Zrotation Xrotation Yrotation
                    JOINT LeftElbow
                    {
                        OFFSET  26.662100   0.001476   0.000517
                        CHANNELS 3 Zrotation Xrotation Yrotation
                        JOINT LeftWrist
                        {
                            OFFSET  28.869000  -0.000025  -0.000106
                            CHANNELS 3 Zrotation Xrotation Yrotation
                            JOINT LeftFinger0
                            {
                                OFFSET   2.044660  -2.323460   3.252850
                                CHANNELS 3 Zrotation Xrotation Yrotation
                                JOINT LeftFinger01
                                {
                                    OFFSET   3.088130   0.000000   0.000000
                                    CHANNELS 3 Zrotation Xrotation Yrotation
                                    JOINT LeftFinger02
                                    {
                                        OFFSET   2.639460   0.000000   0.000000
                                        CHANNELS 3 Zrotation Xrotation Yrotation
                                        End Site
                                        {
                                            OFFSET   2.582190   0.000000   0.000000
                                        }
                                    }
                                }
                            }
                            JOINT LeftFinger1
                            {
                                OFFSET   8.364480   0.000000   3.252850
                                CHANNELS 3 Zrotation Xrotation Yrotation
                                JOINT LeftFinger11
                                {
                                    OFFSET   4.646930   0.000000   0.000000
                                    CHANNELS 3 Zrotation Xrotation Yrotation
                                    JOINT LeftFinger12
                                    {
                                        OFFSET   2.323460   0.000000   0.000000
                                        CHANNELS 3 Zrotation Xrotation Yrotation
                                        End Site
                                        {
                                            OFFSET   2.273050   0.000000   0.000000
                                        }
                                    }
                                }
                            }
                            JOINT LeftFinger2
                            {
                                OFFSET   8.364490   0.000015   1.078090
                                CHANNELS 3 Zrotation Xrotation Yrotation
                                JOINT LeftFinger21
                                {
                                    OFFSET   5.111620   0.000000   0.000000
                                    CHANNELS 3 Zrotation Xrotation Yrotation
                                    JOINT LeftFinger22
                                    {
                                        OFFSET   2.788160   0.000016   0.000000
                                        CHANNELS 3 Zrotation Xrotation Yrotation
                                        End Site
                                        {
                                            OFFSET   2.727660   0.000000   0.000000
                                        }
                                    }
                                }
                            }
                            JOINT LeftFinger3
                            {
                                OFFSET   7.899780   0.000017  -1.078090
                                CHANNELS 3 Zrotation Xrotation Yrotation
                                JOINT LeftFinger31
                                {
                                    OFFSET   4.646930   0.000000   0.000000
                                    CHANNELS 3 Zrotation Xrotation Yrotation
                                    JOINT LeftFinger32
                                    {
                                        OFFSET   2.323470   0.000000   0.000000
                                        CHANNELS 3 Zrotation Xrotation Yrotation
                                        End Site
                                        {
                                            OFFSET   2.273050   0.000000   0.000000
                                        }
                                    }
                                }
                            }
                            JOINT LeftFinger4
                            {
                                OFFSET   7.435090   0.000000  -3.252850
                                CHANNELS 3 Zrotation Xrotation Yrotation
                                JOINT LeftFinger41
                                {
                                    OFFSET   3.717550   0.000000   0.000000
                                    CHANNELS 3 Zrotation Xrotation Yrotation
                                    JOINT LeftFinger42
                                    {
                                        OFFSET   1.858770   0.000000   0.000000
                                        CHANNELS 3 Zrotation Xrotation Yrotation
                                        End Site
                                        {
                                            OFFSET   1.818440   0.000000   0.000000
                                        }
                                    }
                                }
                            }
                        }
                    }
                }
            }
            JOINT RightCollar
            {
                OFFSET  -3.911900  19.017000  -0.467063
                CHANNELS 3 Zrotation Xrotation Yrotation
                JOINT RightShoulder
                {
                    OFFSET -10.383700   0.000019   0.000000
                    CHANNELS 3 Zrotation Xrotation Yrotation
                    JOINT RightElbow
                    {
                        OFFSET -26.662100   0.001175   0.000102
                        CHANNELS 3 Zrotation Xrotation Yrotation
                        JOINT RightWrist
                        {
                            OFFSET -28.869000   0.000016  -0.000079
                            CHANNELS 3 Zrotation Xrotation Yrotation
                            JOINT RightFinger0
                            {
                                OFFSET  -2.044660  -2.323490   3.252850
                                CHANNELS 3 Zrotation Xrotation Yrotation
                                JOINT RightFinger01
                                {
                                    OFFSET  -3.088140   0.000000   0.000000
                                    CHANNELS 3 Zrotation Xrotation Yrotation
                                    JOINT RightFinger02
                                    {
                                        OFFSET  -2.639460   0.000000   0.000000
                                        CHANNELS 3 Zrotation Xrotation Yrotation
                                        End Site
                                        {
                                            OFFSET  -2.582190   0.000000   0.000000
                                        }
                                    }
                                }
                            }
                            JOINT RightFinger1
                            {
                                OFFSET  -8.364480   0.000000   3.252850
                                CHANNELS 3 Zrotation Xrotation Yrotation
                                JOINT RightFinger11
                                {
                                    OFFSET  -4.646930   0.000000   0.000000
                                    CHANNELS 3 Zrotation Xrotation Yrotation
                                    JOINT RightFinger12
                                    {
                                        OFFSET  -2.323470   0.000000   0.000000
                                        CHANNELS 3 Zrotation Xrotation Yrotation
                                        End Site
                                        {
                                            OFFSET  -2.273050   0.000000   0.000000
                                        }
                                    }
                                }
                            }
                            JOINT RightFinger2
                            {
                                OFFSET  -8.364480   0.000000   1.078090
                                CHANNELS 3 Zrotation Xrotation Yrotation
                                JOINT RightFinger21
                                {
                                    OFFSET  -5.111620   0.000000   0.000000
                                    CHANNELS 3 Zrotation Xrotation Yrotation
                                    JOINT RightFinger22
                                    {
                                        OFFSET  -2.788160   0.000000   0.000000
                                        CHANNELS 3 Zrotation Xrotation Yrotation
                                        End Site
                                        {
                                            OFFSET  -2.727660   0.000000   0.000000
                                        }
                                    }
                                }
                            }
                            JOINT RightFinger3
                            {
                                OFFSET  -7.899780   0.000000  -1.078090
                                CHANNELS 3 Zrotation Xrotation Yrotation
                                JOINT RightFinger31
                                {
                                    OFFSET  -4.646930   0.000000   0.000000
                                    CHANNELS 3 Zrotation Xrotation Yrotation
                                    JOINT RightFinger32
                                    {
                                        OFFSET  -2.323470   0.000000   0.000000
                                        CHANNELS 3 Zrotation Xrotation Yrotation
                                        End Site
                                        {
                                            OFFSET  -2.273050   0.000000   0.000000
                                        }
                                    }
                                }
                            }
                            JOINT RightFinger4
                            {
                                OFFSET  -7.435090   0.000000  -3.252850
                                CHANNELS 3 Zrotation Xrotation Yrotation
                                JOINT RightFinger41
                                {
                                    OFFSET  -3.717550   0.000000   0.000000
                                    CHANNELS 3 Zrotation Xrotation Yrotation
                                    JOINT RightFinger42
                                    {
                                        OFFSET  -1.858770   0.000000   0.000000
                                        CHANNELS 3 Zrotation Xrotation Yrotation
                                        End Site
                                        {
                                            OFFSET  -1.818440   0.000000   0.000000
                                        }
                                    }
                                }
                            }
                        }
                    }
                }
            }
        }
    }
    JOINT LeftHip
    {
        OFFSET   9.783040   0.000000   0.000000
        CHANNELS 3 Zrotation Xrotation Yrotation
        JOINT LeftKnee
        {
            OFFSET   0.000032 -41.789100  -0.002222
            CHANNELS 3 Zrotation Xrotation Yrotation
            JOINT LeftAnkle
            {
                OFFSET   0.000087 -41.133200  -0.000135
                CHANNELS 3 Zrotation Xrotation Yrotation
                JOINT LeftToe
                {
                    OFFSET   0.000000  -6.358960  14.674500
                    CHANNELS 3 Zrotation Xrotation Yrotation
                    End Site
                    {
                        OFFSET   0.000000   0.000000   3.913200
                    }
                }
            }
        }
    }
    JOINT RightHip
    {
        OFFSET  -9.783040   0.000000   0.000000
        CHANNELS 3 Zrotation Xrotation Yrotation
        JOINT RightKnee
        {
            OFFSET   0.000047 -41.789100  -0.000896
            CHANNELS 3 Zrotation Xrotation Yrotation
            JOINT RightAnkle
            {
                OFFSET  -0.000117 -41.133300  -0.000248
                CHANNELS 3 Zrotation Xrotation Yrotation
                JOINT RightToe
                {
                    OFFSET   0.000000  -6.358970  14.674500
                    CHANNELS 3 Zrotation Xrotation Yrotation
                    End Site
                    {
                        OFFSET   0.000000   0.000000   3.913200
                    }
                }
            }
        }
    }
}
MOTION
Frames: 5
Frame Time:   0.016667
 -4.484800  89.311300   0.939660  -2.010790  -9.949810  -4.207660   1.376540   7.261550  -1.504310   2.982800  14.481700  -3.224900   2.341060  -5.943460   0.241574   3.963590 -11.991900   2.812620  -3.601360   1.189570   6.261010 -77.071400  11.729200  -5.283870   0.072637   2.441990 -17.644300  10.099500  -3.554860  -1.313750  39.965700  35.087800 -51.737000 -34.130100  -0.000770   0.001700 -12.065100   0.004960   0.000000 -36.888100  -0.225917   0.301001 -30.181600  -0.005988   0.003742 -21.127100  -0.005923  -0.006884 -33.397900  -3.648100   5.511940 -50.360200  -0.005816  -0.003616 -33.539900  -0.005057  -0.005859 -28.834800  -4.391830   7.918600 -43.708300  -0.005630   0.000000 -29.109700   0.001268  -0.001576 -37.017600  -7.230530   9.476280 -56.426600   0.000944  -0.000942 -37.580100   0.003000  -0.003827   1.018610  -0.007127   7.710310  29.712400 -41.045800   7.381080 -14.519900 -19.865500  14.118600  -8.218080 -67.203600  12.351500 -50.250600  36.716100  74.215700  -8.979340  -0.006029  -0.002430  -9.489690  -0.005021  -0.004849  20.148200  -0.320232  -0.866654  16.486200   0.005636   0.001569  11.540300   0.004378   0.004202  20.049600  -0.322999  -0.877973  20.049600   0.002859   0.002927  13.353100   0.002628   0.003698  23.469300  -1.134440  -2.601560  23.491900   0.002823   0.002535  15.645600   0.003740   0.000681  29.897500  -1.541020  -2.672080  44.897800   0.004063   0.002901  29.901900   0.003309   0.001198   5.462900  12.491300   0.463281   0.752095   2.320660  13.600300  -5.742130  -3.729650  -0.578051  -0.000000   0.000000   0.000000   1.421620  10.872300  -2.915840  -0.504898   4.600810 -11.907000   1.252290  -4.792380   4.548210  -0.000000   0.000000   0.000000
 -4.559860  89.311100   0.939922  -2.010180  -9.969430  -4.251280   1.335240   7.226570  -1.505940   2.898140  14.412900  -3.222670   2.278490  -6.015130   0.238444   3.860520 -12.139600   3.031060  -3.605450   1.182810   6.262740 -77.043100  11.736900  -5.299060   0.062297   2.367120 -17.635500  10.102500  -3.554240  -1.306980  39.979000  35.094600 -51.742000 -34.113800  -0.000769   0.001696 -12.056900   0.004966   0.000000 -36.877700  -0.267214   0.356220 -30.173200  -0.005986   0.003742 -21.121300  -0.005926  -0.006883 -33.407100  -3.647880   5.509170 -50.374000  -0.005817  -0.003617 -33.549100  -0.005057  -0.005858 -28.842700  -4.388670   7.909790 -43.719300  -0.005627   0.000000 -29.117000   0.001269  -0.001578 -36.998600  -7.267150   9.529650 -56.407700   0.000944  -0.000942 -37.567500   0.002999  -0.003827   1.067950   0.011402   7.676370  29.808100 -41.064400   7.443100 -14.629200 -19.399100  15.042400  -9.556820 -65.607700  11.611100 -50.094700  36.744900  74.373800  -8.312590  -0.006274  -0.002427  -9.156300  -0.005103  -0.005027  20.376900  -0.323450  -0.869705  16.672800   0.005635   0.001607  11.671000   0.004382   0.004200  20.228400  -0.344011  -0.921631  20.227100   0.002923   0.002948  13.471300   0.002856   0.003773  23.264800  -1.265700  -2.934080  23.294800   0.002885   0.008737  15.514300   0.003732   0.000699  29.685600  -1.634860  -2.862450  44.586500   0.010880   0.011275  29.694600   0.010001   0.001346   5.496360  12.510100   0.452500   0.758133   2.353230  13.662700  -5.789550  -3.726900  -0.592284  -0.000000   0.000000   0.000000   1.426930  10.943000  -2.910180  -0.441733   4.520160 -12.015100   1.231600  -4.783390   4.690190  -0.000000   0.000000   0.000000
 -4.630120  89.310900   0.939960  -2.014590  -9.988590  -4.298470   1.296760   7.193980  -1.506080   2.819010  14.349000  -3.215700   2.205860  -6.077350   0.233731   3.739910 -12.268700   3.246520  -3.615970   1.163980   6.270210 -77.013700  11.744700  -5.312780   0.052428   2.315710 -17.632400  10.103600  -3.553620  -1.304400  40.000000  35.109900 -51.751600 -34.093300  -0.000768   0.001694 -12.046700   0.004970  -0.000000 -36.867200  -0.308509   0.411439 -30.164800  -0.005986   0.003743 -21.115400  -0.005928  -0.006881 -33.413800  -3.647660   5.506530 -50.383900  -0.005818  -0.003618 -33.555700  -0.005056  -0.005856 -28.847500  -4.382890   7.898660 -43.725400  -0.005625  -0.000000 -29.121100   0.001269  -0.001579 -36.979500  -7.303750   9.583030 -56.388700   0.000944  -0.000942 -37.554900   0.002998  -0.003828   1.115730   0.023576   7.656210  29.933700 -41.068800   7.490610 -14.738700 -18.874400  16.003100 -10.606400 -63.993000  11.150000 -49.951200  36.716100  74.432900  -7.645760  -0.006509  -0.002426  -8.822880  -0.005215  -0.005200  20.599400  -0.338626  -0.891060  16.854800   0.005634   0.001646  11.798400   0.004385   0.004198  20.407800  -0.394403  -1.046250  20.406500   0.002988   0.002969  13.590700   0.003086   0.003847  23.056900  -1.412560  -3.308940  23.097700   0.002944   0.014918  15.383100   0.003725   0.000717  29.466600  -1.789850  -3.158380  44.275200   0.017527   0.019622  29.487300   0.016666   0.001493   5.529060  12.528600   0.435100   0.763516   2.383170  13.725800  -5.830740  -3.724150  -0.600050  -0.000000   0.000000  -0.000000   1.432580  11.009500  -2.909930  -0.388956   4.443900 -12.096200   1.222970  -4.771090   4.842500  -0.000000   0.000000  -0.000000
 -4.693830  89.310600   0.936364  -2.028190  -9.998960  -4.344300   1.265260   7.160150  -1.501440   2.753190  14.282400  -3.199950   2.119050  -6.124040   0.226260   3.594370 -12.367200   3.461890  -3.641510   1.131610   6.286020 -76.986900  11.743700  -5.309240   0.053562   2.317890 -17.646300  10.104900  -3.567460  -1.307290  40.030900  35.136300 -51.763600 -34.070000  -0.000764   0.001699 -12.035000   0.004966   0.000000 -36.868000  -0.306659   0.408964 -30.165500  -0.005986   0.003741 -21.115900  -0.005926  -0.006882 -33.418000  -3.647420   5.504790 -50.390100  -0.005817  -0.003618 -33.559800  -0.005056  -0.005856 -28.850500  -4.375700   7.884680 -43.727400  -0.005627   0.000000 -29.122500   0.001269  -0.001579 -36.980100  -7.301910   9.580460 -56.389200   0.000944  -0.000942 -37.555200   0.002998  -0.003828   1.161330   0.023121   7.656510  30.031900 -41.015400   7.489930 -14.848500 -18.326400  16.990800 -11.142100 -62.438200  11.130800 -49.866300  36.615200  74.297200  -7.021020  -0.006622  -0.002429  -8.510510  -0.005366  -0.005368  20.833300  -0.383577  -0.994564  17.047400   0.005634   0.001684  11.933200   0.004378   0.004201  20.605200  -0.487589  -1.285170  20.607100   0.003048   0.002991  13.724400   0.003320   0.003919  23.152900  -1.548200  -3.590410  23.205900   0.002986   0.014498  15.455100   0.003731   0.000729  29.585700  -1.940810  -3.390130  44.471800   0.016551   0.019124  29.618200   0.015889   0.001643   5.560580  12.531300   0.416650   0.774345   2.417940  13.785900  -5.863950  -3.731450  -0.604153  -0.000000   0.000000   0.000000   1.447900  11.059000  -2.930570  -0.356761   4.372560 -12.129600   1.226070  -4.745670   4.959730   0.000000   0.000000  -0.000000
 -4.749980  89.310300   0.928898  -2.043560 -10.007100  -4.386920   1.236490   7.126580  -1.494630   2.693110  14.216400  -3.182540   2.022920  -6.158170   0.217092   3.432420 -12.440800   3.685710  -3.672850   1.093040   6.307020 -76.966100  11.736900  -5.294380   0.058918   2.334000 -17.679800  10.106800  -3.591480  -1.314580  40.055700  35.159100 -51.769100 -34.047700  -0.000760   0.001705 -12.023800   0.004960   0.000000 -36.873800  -0.293703   0.391635 -30.170100  -0.005986   0.003740 -21.119100  -0.005923  -0.006882 -33.423100  -3.647190   5.503480 -50.397700  -0.005817  -0.003617 -33.564800  -0.005056  -0.005855 -28.852700  -4.371100   7.876020 -43.730600  -0.005628   0.000000 -29.124600   0.001269  -0.001579 -36.984600  -7.289000   9.562430 -56.392400   0.000944  -0.000942 -37.557500   0.002998  -0.003828   1.201690   0.022667   7.656810  30.132100 -40.892100   7.481290 -14.961700 -17.782100  18.000300 -11.427800 -60.891100  11.320200 -49.776200  36.530300  74.152600  -6.453110  -0.006955  -0.002432  -8.226570  -0.005563  -0.005533  21.045300  -0.416491  -1.079760  17.222400   0.005633   0.001723  12.055700   0.004372   0.004204  20.787300  -0.581567  -1.525690  20.793400   0.003105   0.003015  13.848400   0.003555   0.003990  23.440800  -1.622800  -3.730730  23.498100   0.003026   0.012306  15.649700   0.003738   0.000737  29.923800  -2.030560  -3.516350  44.985800   0.013528   0.016500  29.960500   0.013310   0.001792   5.587680  12.531700   0.398904   0.787264   2.454790  13.839500  -5.890470  -3.745100  -0.605902   0.000000   0.000000  -0.000000   1.467620  11.103700  -2.951180  -0.332752   4.299690 -12.151400   1.228030  -4.712920   5.054880   0.000000   0.000000   0.000000
